# xmcd
#
# Track frame offsets:
#	150
#	16734
#	33970
#	55335
#	75332
#	91168
#	112724
#	128092
#	149073
#	159328
#	178417
#	200464
#	217114
#	233539
#	247949
#
# Disc length: 3446 seconds
#
# Revision: 1
# Processed by: cddbd v1.5.2PL0 Copyright (c) Steve Scherf et al.
# Submitted via: audiograbber 1.83.01
#
DISCID=bb0d740f
DTITLE=Various Artist - SFID002
DYEAR=2008
DGENRE=karaoke CD+G
TTITLE0=INXS - I send a message
TTITLE1=Fuel - Shimmer
TTITLE2=Tonic - If you could only see
TTITLE3=Hilary Duff - Someone's watching over me
TTITLE4=Chris Isaak - Blue Hotel
TTITLE5=Steve Earl - Copperhead Road
TTITLE6=Michael Buble - Sway
TTITLE7=Icehouse - Electric Blue
TTITLE8=Judy Stone - Born a woman
TTITLE9=The Little River Band - Help is on it's way
TTITLE10=Belinda Carlisle - La Luna
TTITLE11=Patrick Hernandez - Born to be alive
TTITLE12=John Cougar mellencamp - hurt so good
TTITLE13=Pat Benatar - hit me with your best shot
TTITLE14=Patsy Cline - walking after midnight
EXTD=
EXTT0=
EXTT1=
EXTT2=
EXTT3=
EXTT4=
EXTT5=
EXTT6=
EXTT7=
EXTT8=
EXTT9=
EXTT10=
EXTT11=
EXTT12=
EXTT13=
EXTT14=
PLAYORDER=
